<svg xmlns="http://www.w3.org/2000/svg" width="216" height="256" viewBox="0 0 216 256" role="img" aria-labelledby="title">
  <title id="title">Linux</title>
  <defs>
    <radialGradient id="body" cx="43%" cy="28%" r="72%">
      <stop offset="0" stop-color="#292929"/>
      <stop offset=".42" stop-color="#090909"/>
      <stop offset="1"/>
    </radialGradient>
    <radialGradient id="belly" cx="48%" cy="42%" r="66%">
      <stop offset="0" stop-color="#fff"/>
      <stop offset=".78" stop-color="#f7f7f5"/>
      <stop offset="1" stop-color="#d8d8d5"/>
    </radialGradient>
    <linearGradient id="beak" x1="0" y1="0" x2="0" y2="1">
      <stop offset="0" stop-color="#ffe82b"/>
      <stop offset=".55" stop-color="#f7c900"/>
      <stop offset="1" stop-color="#cf8700"/>
    </linearGradient>
    <linearGradient id="feet" x1="0" y1="0" x2="0" y2="1">
      <stop offset="0" stop-color="#ffdb16"/>
      <stop offset=".72" stop-color="#ffc400"/>
      <stop offset="1" stop-color="#d58b00"/>
    </linearGradient>
    <linearGradient id="shine" x1="0" y1="0" x2="1" y2="1">
      <stop offset="0" stop-color="#fff" stop-opacity=".72"/>
      <stop offset="1" stop-color="#fff" stop-opacity="0"/>
    </linearGradient>
  </defs>

  <!-- Main silhouette -->
  <path fill="url(#body)" d="M107 0C76 0 70 23 71 53c1 26-5 41-24 62-18 20-27 45-21 70 7 32 24 57 54 66 17 5 39 6 58 1 38-10 57-46 53-85-3-28-14-46-30-65-14-17-18-30-17-53C146 22 138 0 107 0Z"/>

  <!-- Right wing behind the body -->
  <path fill="#050505" d="M145 88c20 17 37 39 44 66 5 18 3 34-4 43-7 8-18 5-24-3-7-9-4-21-2-32 3-17-2-35-14-50V88Z"/>
  <path fill="none" stroke="url(#shine)" stroke-width="5" stroke-linecap="round" d="M169 125c8 14 12 30 10 46" opacity=".5"/>

  <!-- White face and belly -->
  <path fill="url(#belly)" d="M105 60c-21 0-33 18-32 42 1 12-4 21-12 34-10 17-16 38-12 58 5 25 24 39 55 39 34 0 53-18 56-46 2-21-5-39-15-55-8-12-12-22-11-34 1-22-10-38-29-38Z"/>
  <ellipse cx="91" cy="52" rx="16" ry="22" transform="rotate(-8 91 52)" fill="#f7f7f5"/>
  <ellipse cx="119" cy="52" rx="17" ry="23" transform="rotate(8 119 52)" fill="#f7f7f5"/>
  <ellipse cx="94" cy="55" rx="8" ry="13" transform="rotate(-5 94 55)" fill="#080808"/>
  <ellipse cx="116" cy="55" rx="8.5" ry="13.5" transform="rotate(5 116 55)" fill="#080808"/>
  <path fill="#555" opacity=".42" d="M75 42c5-10 15-15 25-11-10-1-18 4-23 13l-2-2Zm30-12c12-5 25 1 31 13l-3 2c-6-10-16-15-28-12v-3Z"/>

  <!-- Beak -->
  <path fill="url(#beak)" stroke="#c28300" stroke-width="1.2" stroke-linejoin="round" d="M74 71c10-12 22-18 34-16 10 1 18 7 27 16-7 6-17 12-29 14-13 2-24-4-32-9-2-1-2-3 0-5Z"/>
  <path fill="#eaa400" stroke="#b66f00" stroke-width="1.2" d="M76 76c10 8 20 12 31 10 10-1 20-6 28-15-3 15-15 25-30 25-14 0-25-8-29-20Z"/>
  <path fill="url(#shine)" d="M93 62c8-5 17-4 23 0-10 0-17 4-23 10-3 2-5-6 0-10Z" opacity=".65"/>
  <circle cx="90" cy="63" r="1.2" fill="#8e6500"/><ellipse cx="117" cy="63" rx="2.2" ry="1.2" fill="#8e6500"/>

  <!-- Left flipper folded across the belly -->
  <path fill="#030303" d="M47 115c-13 16-22 35-20 53 1 10 7 16 17 17 8 1 16 8 23 17 7 9 16 18 23 14 8-4 2-15-5-24-9-11-20-20-27-31-8-13-6-27-11-46Z"/>
  <path fill="none" stroke="url(#shine)" stroke-width="4" stroke-linecap="round" d="M43 128c-7 13-10 29-7 42" opacity=".4"/>

  <!-- Feet -->
  <path fill="url(#feet)" stroke="#d28b00" stroke-width="1.3" stroke-linejoin="round" d="M45 176c-12 1-12 13-25 14-14 1-17 9-16 26 1 13-7 17-2 23 9 7 31 8 48 12 16 4 28 9 36 1 8-8 1-24-7-39-11-20-23-38-34-37Z"/>
  <path fill="url(#feet)" stroke="#d28b00" stroke-width="1.3" stroke-linejoin="round" d="M156 181c11-3 16 7 27 8 13 1 15 10 17 22 2 11 16 15 16 24 0 8-16 12-32 15-20 4-34 10-41 1-7-9 0-25 3-40 3-14-2-27 10-30Z"/>
  <path fill="url(#shine)" d="M17 201c9-3 16-8 22-15-2 9-11 17-22 19-5 1-5-3 0-4Zm139-10c-3 11-4 22-7 31 1-17-3-28 2-34 3-3 6-1 5 3Z" opacity=".45"/>

  <!-- Right flipper resting on the foot -->
  <path fill="#020202" d="M158 173c11-4 25-2 31 5 4 5 0 14-7 20-8 7-18 7-24 1-6-6-7-22 0-26Z"/>
  <path fill="url(#shine)" d="M164 176c7-2 15-1 19 3-8-2-15 0-21 4-3 2-2-6 2-7Z" opacity=".22"/>

  <!-- Subtle belly accents -->
  <path fill="none" stroke="#b9b9b7" stroke-width="2" stroke-linecap="round" d="M90 137c-3 18-2 37 1 50" opacity=".28"/>
  <path fill="#c9c9c6" d="M73 117c10 2 19 2 28-1-5 6-12 9-21 8l-7-7Z" opacity=".3"/>
</svg>
